<svg viewBox="5 3 190 168" role="img" xmlns="http://www.w3.org/2000/svg"><title>Jakarta EE</title>
<path d="M166.6 7.51801L126.616 51.3133C126.14 73.5093 120.785 107.042 97.223 137.591L131.971 146.303C189.924 91.648 166.6 7.51801 166.6 7.51801Z" fill="#FDB940"/>
<path d="M126.616 51.3133C126.973 35.9193 124.95 26.0147 124.95 26.0147L36.89 122.794L97.104 137.83C97.104 137.711 97.223 137.711 97.223 137.591L57.12 127.567L126.616 51.3133Z" fill="#FEB322"/>
<path d="M57.239 127.567L97.342 137.591C120.785 107.042 126.14 73.6287 126.616 51.3134L57.239 127.567Z" fill="#F98200"/>
<path d="M112.931 147.735C116.382 147.735 119.833 147.854 123.165 148.212L9.52002 120.049C9.52002 120.049 30.702 127.09 56.168 165.396C69.734 154.537 90.083 147.735 112.931 147.735Z" fill="#1B208B"/>
</svg>
